<svg width="376" height="345" viewBox="0 0 376 345" fill="none" xmlns="http://www.w3.org/2000/svg">
<path d="M11.7026 118.807C20.0095 96.3128 32.9728 75.7829 49.7624 58.5319C64.0069 43.9016 86.1764 44.5096 86.1764 44.5096L86.303 44.3541C91.6386 37.8443 98.7985 33.0384 106.884 30.5393C114.97 28.0402 123.622 27.9592 131.754 30.3065C133.868 30.9066 135.494 31.1726 136.267 30.9053C150.364 26.0238 149.702 15.0057 161.865 6.12967C183.162 -9.41181 253.801 8.39064 263.762 36.9888C271.835 60.167 307.871 71.4012 321.335 89.1307C323.44 91.9029 325.506 94.7072 327.531 97.5437C328.481 98.8614 329.42 100.189 330.349 101.527C339.887 115.194 348.445 129.506 355.957 144.358C360.884 154.062 365.166 164.074 368.775 174.329C382.816 214.938 378.014 245.195 339.3 237.72C334.717 236.833 330.244 236.039 325.882 235.339C319.564 234.319 313.467 233.48 307.59 232.824C299.677 231.933 292.148 231.35 285.004 231.074C282.602 230.978 280.244 230.914 277.93 230.881C243.716 230.412 218.337 236.783 199.003 246.673C195.726 248.345 192.62 250.114 189.686 251.98C185.204 254.814 180.925 257.951 176.878 261.367C171.279 266.121 166.115 271.356 161.447 277.01L161.191 277.321C138.577 304.688 131.135 334.984 115.405 340.318C48.1625 363.125 5.63466 280.45 1.27332 199.576C1.05311 195.501 0.931466 191.437 0.908378 187.385C0.894749 185.574 0.903748 183.767 0.935384 181.966C1.00439 177.266 1.21382 172.596 1.56452 167.983C1.6955 166.219 1.84742 164.464 2.02028 162.719C2.21078 160.837 2.41801 158.966 2.65752 157.107C4.36809 143.481 7.36061 130.516 11.7026 118.807Z" fill="#BDB2FF"/>
<path d="M89.1371 166.964C87.4663 168.067 85.7563 165.442 87.4592 164.389C89.1299 163.286 90.8399 165.91 89.1371 166.964Z" fill="#E6E6E6"/>
<path d="M263.051 129.256C261.38 130.359 259.67 127.735 261.373 126.681C263.044 125.579 264.754 128.203 263.051 129.256Z" fill="#E6E6E6"/>
<path d="M144.513 159.251C142.842 160.354 141.132 157.729 142.835 156.676C144.505 155.573 146.215 158.198 144.513 159.251Z" fill="#E6E6E6"/>
<path d="M89.1371 262.09C87.4663 263.193 85.7563 260.568 87.4592 259.515C89.1299 258.412 90.8399 261.036 89.1371 262.09Z" fill="#E6E6E6"/>
<path d="M174.364 47.4139C172.693 48.5165 170.983 45.8922 172.686 44.8385C174.356 43.736 176.066 46.3603 174.364 47.4139Z" fill="#E6E6E6"/>
<path d="M210.391 83.4811L209.329 83.2501L209.561 82.1969L208.853 82.043L208.619 83.0963L207.556 82.8657L207.401 83.5676L208.464 83.7986L208.231 84.8514L208.94 85.0052L209.173 83.952L210.236 84.1829L210.391 83.4811Z" fill="#E6E6E6"/>
<path d="M37.3008 171.227L36.2379 170.997L36.4706 169.944L35.762 169.79L35.5288 170.843L34.4654 170.612L34.3101 171.314L35.3735 171.545L35.1408 172.598L35.8494 172.752L36.0826 171.699L37.1455 171.929L37.3008 171.227Z" fill="#E6E6E6"/>
<path opacity="0.3" d="M219.895 154.579L246.974 76.2459L217.239 153.641C217.092 153.825 216.991 154.041 216.945 154.27C216.899 154.5 216.909 154.738 216.975 154.963C217.04 155.189 217.158 155.395 217.32 155.566C217.482 155.737 217.683 155.868 217.906 155.946C218.129 156.025 218.368 156.05 218.602 156.019C218.837 155.988 219.061 155.902 219.255 155.769C219.449 155.635 219.609 155.457 219.72 155.25C219.831 155.043 219.891 154.813 219.895 154.579H219.895Z" fill="#F0F0F0"/>
<path d="M302.015 186.165C304.572 186.165 306.645 184.112 306.645 181.579C306.645 179.046 304.572 176.993 302.015 176.993C299.458 176.993 297.385 179.046 297.385 181.579C297.385 184.112 299.458 186.165 302.015 186.165Z" fill="#FF6584"/>
<path d="M331.433 310.429C333.99 310.429 336.063 308.376 336.063 305.843C336.063 303.31 333.99 301.257 331.433 301.257C328.876 301.257 326.803 303.31 326.803 305.843C326.803 308.376 328.876 310.429 331.433 310.429Z" fill="#F2F2F2"/>
<path d="M173.526 338.351C178.512 338.351 182.553 334.348 182.553 329.41C182.553 324.472 178.512 320.469 173.526 320.469C168.541 320.469 164.499 324.472 164.499 329.41C164.499 334.348 168.541 338.351 173.526 338.351Z" fill="#F2F2F2"/>
<path d="M104.739 220.016C107.296 220.016 109.369 217.963 109.369 215.43C109.369 212.898 107.296 210.844 104.739 210.844C102.182 210.844 100.109 212.898 100.109 215.43C100.109 217.963 102.182 220.016 104.739 220.016Z" fill="#3F3D56"/>
</svg>
