<svg width="361" height="208" viewBox="0 0 361 208" fill="none" xmlns="http://www.w3.org/2000/svg">
<path d="M325.921 40.8873C320.62 42.6322 314.744 44.3463 308.291 46.0296C274.917 54.7327 230.181 61.5215 182.327 65.1459C134.472 68.7702 89.2146 68.7965 54.8921 65.2206C38.1724 63.4784 24.9481 60.9728 15.5868 57.7729C5.67565 54.3855 0.467831 50.3034 0.107769 45.6406C-0.593398 36.5567 17.5046 28.5614 32.8105 23.4539L33.225 24.6721C12.206 31.686 0.904442 39.0981 1.40204 45.5427C2.03553 53.7509 21.5814 60.457 55.0278 63.9421C89.2749 67.5102 134.449 67.4828 182.228 63.8644C230.007 60.2456 274.66 53.4702 307.961 44.7863C340.483 36.3062 358.772 26.7342 358.139 18.5258C357.613 11.7107 344.049 5.88074 319.948 2.10911L320.15 0.839478C337.663 3.58002 358.694 8.85587 359.433 18.4278C359.793 23.0907 355.272 27.9093 345.996 32.7498C340.709 35.509 333.99 38.2312 325.921 40.8873Z" fill="#3F3D56"/>
<path d="M321.701 207.353C316.115 207.353 309.993 207.144 303.333 206.726C268.891 204.56 224.277 197.028 177.71 185.519C131.144 174.01 88.188 159.897 56.7558 145.782C41.4442 138.906 29.6926 132.398 21.8279 126.437C13.5012 120.126 9.85898 114.626 11.002 110.089C13.2291 101.249 32.9493 99.3153 49.1004 99.2496L49.1059 100.535C26.9262 100.625 13.8413 104.129 12.2614 110.4C10.2489 118.387 26.6619 130.857 57.2917 144.612C88.6549 158.695 131.532 172.781 178.025 184.272C224.518 195.762 269.049 203.281 303.416 205.443C336.978 207.554 357.382 204.184 359.395 196.197C361.065 189.565 350.051 179.796 328.38 168.688L328.977 167.547C344.723 175.618 363.001 187.194 360.654 196.508C359.511 201.045 353.687 204.206 343.343 205.902C337.446 206.869 330.204 207.353 321.701 207.353Z" fill="#3F3D56"/>
</svg>
