<svg width="847" height="565" viewBox="0 0 847 565" fill="none" xmlns="http://www.w3.org/2000/svg">
<path d="M659 253.5C667.333 250 685.463 242.111 698 238C728.5 228 761 181.5 758.5 141.5C756.233 105.225 720.771 71.7104 714.5 70.0001C709 68.5 692.5 60.0001 670 61.5001C667.091 61.694 640 65.5 631 70.5C625.136 73.7578 603 106.5 595.5 111.5C591.157 114.396 575.5 194.5 641.5 228" stroke="#F7F7F7" stroke-width="9" stroke-linecap="round"/>
<path d="M582.392 68.6577C572.856 71.9551 585.674 100.602 593.275 114.513L624.37 76.3861C614.351 72.436 591.928 65.3602 582.392 68.6577Z" stroke="#F7F7F7" stroke-width="9"/>
<path d="M756.007 67.112C748.959 65.8754 734.413 75.1839 728.021 79.9927C740.459 94.9344 754.971 117.604 754.971 121.726C754.971 125.848 770 82.0536 770 81.5384C770 81.0232 764.817 68.6577 756.007 67.112Z" stroke="#F7F7F7" stroke-width="9"/>
<path d="M721.5 230C720.7 324 732.5 391.833 738.5 414C741.667 418 747.8 430 747 446C746.2 462 756.667 472.333 762 475.5C780 477.5 799.9 483.7 797.5 496.5C795.1 509.3 734 505.5 703 502C694.5 502 690.5 504.4 684.5 500C677 494.5 701 486.5 692.5 474C684 461.5 635.5 448 625.5 409C617.5 377.8 594.5 333 584 314.5M584 314.5C576.667 322.833 559.2 340.3 548 343.5C536.8 346.7 534.333 401.833 534.5 429C531.667 439.5 527.7 462 534.5 468C543 475.5 564.45 473.815 574.5 480C587.5 488 592 491 584.5 502C578.5 510.8 538.167 503.833 511 502C493 500.785 474.9 498.3 464.5 491.5C451.5 483 467 480 448 475.5C432.8 471.9 447.5 457 452 436.5C446 415 429.9 403.3 427.5 388.5C426.39 381.652 429.589 360.983 434.256 337M584 314.5C596.5 301.333 622.2 272.4 625 262M451.5 260C451.5 260 446.516 274 434.256 337M434.256 337C421.837 330.667 393.4 319.9 379 327.5C361 337 346 353.5 337.5 395C329 436.5 310 466 317.5 475.5C323.5 483.1 347.333 492.667 358.5 496.5C363.5 498.333 372 503.7 366 510.5C360 517.3 284.167 513.333 241.5 510.5C226 510.5 218 494 235 474C255.926 449.381 236.5 395 230.5 380.5M230.5 380.5C205.833 402.333 152.9 446 138.5 446C124.1 446 132 482.5 145 496.5C134.5 503.833 109 512.7 91 489.5C73 466.3 68.5 450.833 68.5 446C69.0412 441.667 69.7989 429.2 68.5 414C65 405.333 63.1 384.4 83.5 370C109 352 124 317.5 128 286C132 254.5 145.5 138 187 100C228.5 62 271.5 44.5 295 41.5C318.5 38.5 341 31.5 379 36.5C417 41.5 418.5 35 476.5 54C534.5 73 515 46 566 46C595.182 46 613.5 54 635 68M230.5 380.5C255.5 364 307.5 327.7 315.5 314.5" stroke="#F7F7F7" stroke-width="9" stroke-linecap="round"/>
<path d="M661 172C660 177.5 672 189.5 676 189.5C683.5 188 695.6 176.3 690 171.5C684 166.357 661.759 167.826 661 172Z" fill="#F7F7F7"/>
<path d="M651.938 128.058C650.479 130.18 640.73 130.86 636.527 125.256C634.568 122.338 636.637 116.85 640.03 116.85C646.334 116.85 653.045 126.447 651.938 128.058Z" fill="#F7F7F7"/>
<path d="M695.967 129.198C697.549 131.499 708.119 132.236 712.676 126.16C714.8 122.996 712.557 117.046 708.878 117.046C702.043 117.046 694.766 127.451 695.967 129.198Z" fill="#F7F7F7"/>
<path d="M675.5 189C675 193.5 668 196.5 663.5 196" stroke="#F7F7F7" stroke-linecap="round"/>
<path d="M676 189C676.5 193.5 684 195.5 688.5 195" stroke="#F7F7F7" stroke-linecap="round"/>
</svg>
