<svg width="211" height="183" viewBox="0 0 211 183" fill="none" xmlns="http://www.w3.org/2000/svg">
<g clip-path="url(#clip0_9_575)">
<path d="M190.246 95.2361C190.273 117.88 181.483 139.654 165.723 155.978C164.773 156.969 163.797 157.936 162.796 158.878C161.27 160.324 159.693 161.713 158.065 163.046C142.834 175.541 123.819 182.563 104.088 182.978C103.431 182.993 102.771 183 102.109 183C86.3729 183 66.5812 174.631 48.6204 163.046C47.1344 162.087 45.6616 161.107 44.2021 160.104C43.5199 159.639 42.841 159.168 42.1654 158.691C35.2381 153.82 28.6627 148.471 22.4878 142.684C18.4448 138.906 14.6536 134.869 11.1382 130.6C-2.66238 113.649 -5.70629 98.3757 13.9688 95.2361C16.2982 94.8656 18.5591 94.4695 20.7513 94.0479C23.9267 93.4403 26.9656 92.784 29.8681 92.0792C33.7778 91.1331 37.4511 90.1071 40.8878 89.0013C42.0438 88.6308 43.1734 88.2528 44.2765 87.8675C60.5852 82.1638 71.5006 74.726 78.9306 66.6558C80.1908 65.2898 81.3526 63.9073 82.4161 62.5084C84.0431 60.379 85.521 58.1406 86.8393 55.8092C88.6589 52.5698 90.1872 49.1765 91.4064 45.669L91.4734 45.4763C97.3851 28.4961 95.5865 12.7461 102.109 7.4747C129.988 -15.061 164.696 17.0319 180.988 54.8779C181.809 56.7849 182.581 58.7034 183.305 60.6335C183.63 61.4956 183.943 62.3593 184.245 63.2247C185.039 65.48 185.759 67.7411 186.406 70.0079C186.654 70.8725 186.89 71.7362 187.115 72.5992C187.356 73.5304 187.586 74.4592 187.8 75.388C189.385 82.1885 190.246 88.8951 190.246 95.2361Z" fill="#BDB2FF"/>
<path d="M104.088 182.978C103.431 182.993 102.771 183 102.109 183C86.3729 183 66.5812 174.631 48.6204 163.046C47.1344 162.087 45.6616 161.107 44.2021 160.104L45.4822 152.347L84.2345 147.224L103.684 162.033L104.088 182.978Z" fill="#2F2E41"/>
<path d="M105.954 44.4759H100.432C100.26 44.476 100.096 44.5437 99.9755 44.6641C99.8546 44.7845 99.7866 44.9478 99.7865 45.1181V50.6193C99.7866 50.7035 99.8034 50.7868 99.8358 50.8646C99.8683 50.9423 99.9159 51.0129 99.9758 51.0724C100.036 51.1318 100.107 51.1789 100.185 51.2109C100.263 51.2429 100.347 51.2593 100.432 51.2591H105.954C106.124 51.2591 106.288 51.1918 106.409 51.0719C106.53 50.952 106.598 50.7892 106.599 50.6193V45.1181C106.598 44.948 106.53 44.7849 106.409 44.6646C106.288 44.5442 106.125 44.4764 105.954 44.4759Z" fill="#FF6584"/>
<path d="M105.954 53.8503H100.432C100.26 53.8504 100.096 53.9181 99.9755 54.0385C99.8546 54.159 99.7866 54.3223 99.7865 54.4926V59.9937C99.7866 60.0779 99.8034 60.1613 99.8358 60.239C99.8683 60.3168 99.9159 60.3874 99.9758 60.4468C100.036 60.5062 100.107 60.5533 100.185 60.5854C100.263 60.6174 100.347 60.6338 100.432 60.6335H105.954C106.124 60.6336 106.288 60.5663 106.409 60.4464C106.53 60.3264 106.598 60.1637 106.599 59.9937V54.4926C106.598 54.3224 106.53 54.1593 106.409 54.039C106.288 53.9187 106.125 53.8508 105.954 53.8503Z" fill="#FF6584"/>
<path d="M105.954 63.2248H100.432C100.26 63.2248 100.096 63.2925 99.9755 63.413C99.8546 63.5334 99.7866 63.6967 99.7865 63.867V69.3657C99.7864 69.4501 99.8029 69.5337 99.8353 69.6117C99.8676 69.6897 99.9151 69.7605 99.9751 69.8202C100.035 69.8799 100.106 69.9272 100.184 69.9594C100.263 69.9916 100.347 70.0081 100.432 70.0079H105.954C106.125 70.0079 106.289 69.9402 106.41 69.8198C106.531 69.6993 106.599 69.536 106.599 69.3657V63.867C106.598 63.6968 106.53 63.5338 106.409 63.4134C106.288 63.2931 106.125 63.2253 105.954 63.2248Z" fill="#FF6584"/>
<path d="M106.589 73.1278C106.561 72.9799 106.483 72.8461 106.367 72.7496C106.251 72.6531 106.105 72.5999 105.954 72.5992H100.432C100.26 72.5992 100.096 72.6669 99.9755 72.7874C99.8546 72.9078 99.7866 73.0711 99.7865 73.2414V78.7401C99.7864 78.8245 99.8029 78.9081 99.8353 78.9861C99.8676 79.0641 99.9151 79.1349 99.9751 79.1946C100.035 79.2543 100.106 79.3016 100.184 79.3338C100.263 79.366 100.347 79.3825 100.432 79.3824H105.954C106.125 79.3823 106.289 79.3146 106.41 79.1942C106.531 79.0737 106.599 78.9104 106.599 78.7401V73.2414C106.599 73.2033 106.596 73.1653 106.589 73.1278Z" fill="#FF6584"/>
<path d="M106.204 82.023C106.125 81.9903 106.04 81.9735 105.954 81.9736H100.432C100.347 81.9734 100.263 81.9899 100.185 82.0222C100.106 82.0544 100.035 82.1017 99.9751 82.1613C99.9152 82.221 99.8677 82.2919 99.8353 82.3699C99.803 82.4479 99.7864 82.5315 99.7866 82.6159V88.1145C99.7862 88.199 99.8026 88.2827 99.8349 88.3608C99.8671 88.4389 99.9146 88.5098 99.9746 88.5695C100.035 88.6292 100.106 88.6765 100.184 88.7087C100.263 88.7408 100.347 88.7572 100.432 88.7568H105.954C106.125 88.7567 106.289 88.689 106.41 88.5686C106.531 88.4482 106.599 88.2848 106.599 88.1145V82.6159C106.598 82.4895 106.561 82.3659 106.491 82.2605C106.421 82.1552 106.321 82.0726 106.204 82.023Z" fill="#FF6584"/>
<path d="M117.554 44.4759H112.032C111.861 44.476 111.697 44.5437 111.576 44.6641C111.455 44.7845 111.387 44.9478 111.387 45.1181V50.6193C111.387 50.7035 111.404 50.7868 111.436 50.8646C111.468 50.9423 111.516 51.0129 111.576 51.0724C111.636 51.1318 111.707 51.1789 111.785 51.2109C111.863 51.2429 111.947 51.2593 112.032 51.2591H117.554C117.725 51.2591 117.888 51.1918 118.009 51.0719C118.13 50.952 118.198 50.7892 118.199 50.6193V45.1181C118.198 44.948 118.13 44.7849 118.009 44.6646C117.889 44.5442 117.725 44.4764 117.554 44.4759Z" fill="#FF6584"/>
<path d="M117.554 53.8503H112.032C111.861 53.8504 111.697 53.9181 111.576 54.0385C111.455 54.159 111.387 54.3223 111.387 54.4926V59.9937C111.387 60.0779 111.404 60.1613 111.436 60.239C111.468 60.3168 111.516 60.3874 111.576 60.4468C111.636 60.5062 111.707 60.5533 111.785 60.5854C111.863 60.6174 111.947 60.6338 112.032 60.6335H117.554C117.725 60.6336 117.888 60.5663 118.009 60.4464C118.13 60.3264 118.198 60.1637 118.199 59.9937V54.4926C118.198 54.3224 118.13 54.1593 118.009 54.039C117.889 53.9187 117.725 53.8508 117.554 53.8503Z" fill="#FF6584"/>
<path d="M117.554 63.2248H112.032C111.861 63.2248 111.697 63.2925 111.576 63.413C111.455 63.5334 111.387 63.6967 111.387 63.867V69.3657C111.387 69.4501 111.403 69.5337 111.435 69.6117C111.468 69.6897 111.515 69.7605 111.575 69.8202C111.635 69.8799 111.706 69.9272 111.785 69.9594C111.863 69.9916 111.947 70.0081 112.032 70.0079H117.554C117.725 70.0079 117.889 69.9402 118.01 69.8198C118.131 69.6993 118.199 69.536 118.199 69.3657V63.867C118.198 63.6968 118.13 63.5338 118.009 63.4134C117.889 63.2931 117.725 63.2253 117.554 63.2248Z" fill="#FF6584"/>
<path d="M117.554 72.5992H112.032C111.896 72.5993 111.765 72.6418 111.655 72.7207C111.546 72.7997 111.464 72.911 111.421 73.0388C111.398 73.1039 111.387 73.1724 111.387 73.2414V78.7401C111.387 78.8245 111.403 78.9081 111.435 78.9861C111.468 79.0641 111.515 79.1349 111.575 79.1946C111.635 79.2543 111.706 79.3016 111.785 79.3338C111.863 79.366 111.947 79.3825 112.032 79.3824H117.554C117.725 79.3823 117.889 79.3146 118.01 79.1942C118.131 79.0737 118.199 78.9104 118.199 78.7401V73.2414C118.198 73.0712 118.13 72.9082 118.009 72.7878C117.889 72.6675 117.725 72.5997 117.554 72.5992Z" fill="#FF6584"/>
<path d="M117.554 81.9736H112.032C111.947 81.9734 111.863 81.9899 111.785 82.0222C111.706 82.0544 111.635 82.1017 111.575 82.1613C111.515 82.221 111.468 82.2919 111.435 82.3699C111.403 82.4479 111.387 82.5315 111.387 82.6159V88.1145C111.387 88.1989 111.403 88.2825 111.435 88.3605C111.468 88.4385 111.515 88.5094 111.575 88.5691C111.635 88.6287 111.706 88.676 111.785 88.7082C111.863 88.7405 111.947 88.757 112.032 88.7568H117.554C117.725 88.7567 117.889 88.689 118.01 88.5686C118.131 88.4482 118.199 88.2848 118.199 88.1145V82.6159C118.199 82.4455 118.131 82.2822 118.01 82.1618C117.889 82.0414 117.725 81.9737 117.554 81.9736Z" fill="#FF6584"/>
<path d="M129.154 44.4759H123.632C123.461 44.476 123.297 44.5437 123.176 44.6641C123.055 44.7845 122.987 44.9478 122.987 45.1181V50.6193C122.987 50.7035 123.004 50.7868 123.036 50.8646C123.069 50.9423 123.116 51.0129 123.176 51.0724C123.236 51.1318 123.307 51.1789 123.385 51.2109C123.463 51.2429 123.547 51.2593 123.632 51.2591H129.154C129.325 51.2591 129.488 51.1918 129.609 51.0719C129.73 50.952 129.798 50.7892 129.799 50.6193V45.1181C129.799 44.948 129.73 44.7849 129.61 44.6646C129.489 44.5442 129.325 44.4764 129.154 44.4759Z" fill="#FF6584"/>
<path d="M129.154 53.8503H123.632C123.461 53.8504 123.297 53.9181 123.176 54.0385C123.055 54.159 122.987 54.3223 122.987 54.4926V59.9937C122.987 60.0779 123.004 60.1613 123.036 60.239C123.069 60.3168 123.116 60.3874 123.176 60.4468C123.236 60.5062 123.307 60.5533 123.385 60.5854C123.463 60.6174 123.547 60.6338 123.632 60.6335H129.154C129.325 60.6336 129.488 60.5663 129.609 60.4464C129.73 60.3264 129.798 60.1637 129.799 59.9937V54.4926C129.799 54.3224 129.73 54.1593 129.61 54.039C129.489 53.9187 129.325 53.8508 129.154 53.8503Z" fill="#FF6584"/>
<path d="M129.154 63.2248H123.632C123.461 63.2248 123.297 63.2925 123.176 63.413C123.055 63.5334 122.987 63.6967 122.987 63.867V69.3657C122.987 69.4501 123.003 69.5337 123.036 69.6117C123.068 69.6897 123.115 69.7605 123.175 69.8202C123.235 69.8799 123.306 69.9272 123.385 69.9594C123.463 69.9916 123.547 70.0081 123.632 70.0079H129.154C129.325 70.0079 129.489 69.9402 129.61 69.8198C129.731 69.6993 129.799 69.536 129.799 69.3657V63.867C129.799 63.6968 129.73 63.5338 129.61 63.4134C129.489 63.2931 129.325 63.2253 129.154 63.2248Z" fill="#FF6584"/>
<path d="M129.154 72.5992H123.632C123.461 72.5992 123.297 72.6669 123.176 72.7874C123.055 72.9078 122.987 73.0711 122.987 73.2414V78.7401C122.987 78.8245 123.003 78.9081 123.036 78.9861C123.068 79.0641 123.115 79.1349 123.175 79.1946C123.235 79.2543 123.306 79.3016 123.385 79.3338C123.463 79.366 123.547 79.3825 123.632 79.3824H129.154C129.325 79.3823 129.489 79.3146 129.61 79.1942C129.731 79.0737 129.799 78.9104 129.799 78.7401V73.2414C129.799 73.0712 129.73 72.9082 129.61 72.7878C129.489 72.6675 129.325 72.5997 129.154 72.5992Z" fill="#FF6584"/>
<path d="M129.154 81.9736H123.632C123.547 81.9734 123.463 81.9899 123.385 82.0222C123.306 82.0544 123.235 82.1017 123.175 82.1613C123.115 82.221 123.068 82.2919 123.036 82.3699C123.003 82.4479 122.987 82.5315 122.987 82.6159V88.1145C122.987 88.1989 123.003 88.2825 123.036 88.3605C123.068 88.4385 123.115 88.5094 123.175 88.5691C123.235 88.6287 123.306 88.676 123.385 88.7082C123.463 88.7405 123.547 88.757 123.632 88.7568H129.154C129.325 88.7567 129.489 88.689 129.61 88.5686C129.731 88.4482 129.799 88.2848 129.799 88.1145V82.6159C129.799 82.4455 129.731 82.2822 129.61 82.1618C129.489 82.0414 129.325 81.9737 129.154 81.9736Z" fill="#FF6584"/>
<path d="M140.754 44.4759H135.232C135.061 44.476 134.897 44.5437 134.776 44.6641C134.655 44.7845 134.587 44.9478 134.587 45.1181V50.6193C134.587 50.7035 134.604 50.7868 134.636 50.8646C134.669 50.9423 134.716 51.0129 134.776 51.0724C134.836 51.1318 134.907 51.1789 134.985 51.2109C135.064 51.243 135.147 51.2593 135.232 51.2591H140.754C140.925 51.2591 141.089 51.1918 141.209 51.0719C141.33 50.952 141.399 50.7892 141.399 50.6193V45.1181C141.399 44.948 141.331 44.7849 141.21 44.6646C141.089 44.5442 140.925 44.4764 140.754 44.4759Z" fill="#FF6584"/>
<path d="M140.754 53.8503H135.232C135.061 53.8504 134.897 53.9181 134.776 54.0385C134.655 54.159 134.587 54.3223 134.587 54.4926V59.9937C134.587 60.0779 134.604 60.1613 134.636 60.239C134.669 60.3168 134.716 60.3874 134.776 60.4468C134.836 60.5062 134.907 60.5533 134.985 60.5854C135.064 60.6174 135.147 60.6338 135.232 60.6335H140.754C140.925 60.6336 141.089 60.5663 141.209 60.4464C141.33 60.3264 141.399 60.1637 141.399 59.9937V54.4926C141.399 54.3224 141.331 54.1593 141.21 54.039C141.089 53.9187 140.925 53.8508 140.754 53.8503Z" fill="#FF6584"/>
<path d="M140.754 63.2248H135.232C135.061 63.2248 134.897 63.2925 134.776 63.413C134.655 63.5334 134.587 63.6967 134.587 63.867V69.3657C134.587 69.4501 134.603 69.5337 134.636 69.6117C134.668 69.6897 134.716 69.7605 134.775 69.8202C134.835 69.8799 134.907 69.9272 134.985 69.9594C135.063 69.9916 135.147 70.0081 135.232 70.0079H140.754C140.925 70.0079 141.089 69.9402 141.21 69.8198C141.331 69.6993 141.399 69.536 141.399 69.3657V63.867C141.399 63.6968 141.331 63.5338 141.21 63.4134C141.089 63.2931 140.925 63.2253 140.754 63.2248Z" fill="#FF6584"/>
<path d="M140.754 72.5992H135.232C135.061 72.5992 134.897 72.6669 134.776 72.7874C134.655 72.9078 134.587 73.0711 134.587 73.2414V78.7401C134.587 78.8245 134.603 78.9081 134.636 78.9861C134.668 79.0641 134.716 79.1349 134.775 79.1946C134.835 79.2543 134.907 79.3016 134.985 79.3338C135.063 79.366 135.147 79.3825 135.232 79.3824H140.754C140.925 79.3823 141.089 79.3146 141.21 79.1942C141.331 79.0737 141.399 78.9104 141.399 78.7401V73.2414C141.399 73.0712 141.331 72.9082 141.21 72.7878C141.089 72.6675 140.925 72.5997 140.754 72.5992Z" fill="#FF6584"/>
<path d="M140.754 81.9736H135.232C135.147 81.9734 135.063 81.9899 134.985 82.0222C134.907 82.0544 134.835 82.1017 134.775 82.1613C134.716 82.221 134.668 82.2919 134.636 82.3699C134.603 82.4479 134.587 82.5315 134.587 82.6159V88.1145C134.587 88.1989 134.603 88.2825 134.636 88.3605C134.668 88.4385 134.716 88.5094 134.775 88.5691C134.835 88.6287 134.907 88.676 134.985 88.7082C135.063 88.7405 135.147 88.757 135.232 88.7568H140.754C140.925 88.7567 141.089 88.689 141.21 88.5686C141.331 88.4482 141.399 88.2848 141.399 88.1145V82.6159C141.399 82.4455 141.331 82.2822 141.21 82.1618C141.089 82.0414 140.925 81.9737 140.754 81.9736Z" fill="#FF6584"/>
<path d="M152.354 44.4759H146.83C146.659 44.4765 146.495 44.5444 146.375 44.6648C146.255 44.7852 146.187 44.9482 146.187 45.1181V50.6193C146.187 50.789 146.255 50.9517 146.375 51.0716C146.496 51.1916 146.659 51.259 146.83 51.2591H152.354C152.525 51.2591 152.689 51.1918 152.81 51.0719C152.93 50.952 152.999 50.7892 152.999 50.6193V45.1181C152.999 44.948 152.931 44.7849 152.81 44.6646C152.689 44.5442 152.525 44.4764 152.354 44.4759Z" fill="#FF6584"/>
<path d="M152.354 53.8503H146.83C146.659 53.8509 146.495 53.9189 146.375 54.0393C146.255 54.1596 146.187 54.3227 146.187 54.4926V59.9937C146.187 60.1634 146.255 60.3261 146.375 60.4461C146.496 60.5661 146.659 60.6335 146.83 60.6335H152.354C152.525 60.6336 152.689 60.5663 152.81 60.4464C152.93 60.3264 152.999 60.1637 152.999 59.9937V54.4926C152.999 54.3224 152.931 54.1593 152.81 54.039C152.689 53.9187 152.525 53.8508 152.354 53.8503Z" fill="#FF6584"/>
<path d="M152.354 63.2248H146.83C146.659 63.2254 146.495 63.2933 146.375 63.4137C146.255 63.5341 146.187 63.6971 146.187 63.867V69.3657C146.187 69.4499 146.203 69.5333 146.235 69.6112C146.268 69.6891 146.315 69.7598 146.375 69.8195C146.434 69.8791 146.505 69.9265 146.583 69.9588C146.661 69.9912 146.745 70.0078 146.83 70.0079H152.354C152.525 70.0079 152.689 69.9402 152.81 69.8198C152.931 69.6993 152.999 69.536 152.999 69.3657V63.867C152.999 63.6968 152.931 63.5338 152.81 63.4134C152.689 63.2931 152.525 63.2253 152.354 63.2248Z" fill="#FF6584"/>
<path d="M152.354 72.5992H146.83C146.659 72.5998 146.495 72.6677 146.375 72.7881C146.255 72.9085 146.187 73.0715 146.187 73.2414V78.7401C146.187 78.8243 146.203 78.9077 146.235 78.9856C146.268 79.0635 146.315 79.1342 146.375 79.1939C146.434 79.2536 146.505 79.3009 146.583 79.3332C146.661 79.3656 146.745 79.3823 146.83 79.3824H152.354C152.525 79.3823 152.689 79.3146 152.81 79.1942C152.931 79.0737 152.999 78.9104 152.999 78.7401V73.2414C152.999 73.0712 152.931 72.9082 152.81 72.7878C152.689 72.6675 152.525 72.5997 152.354 72.5992Z" fill="#FF6584"/>
<path d="M152.354 81.9736H146.83C146.745 81.9737 146.661 81.9904 146.583 82.0227C146.505 82.0551 146.434 82.1024 146.375 82.1621C146.315 82.2217 146.268 82.2925 146.235 82.3704C146.203 82.4482 146.187 82.5317 146.187 82.6159V88.1145C146.187 88.1987 146.203 88.2822 146.235 88.36C146.268 88.4379 146.315 88.5087 146.375 88.5683C146.434 88.628 146.505 88.6753 146.583 88.7077C146.661 88.74 146.745 88.7567 146.83 88.7568H152.354C152.525 88.7567 152.689 88.689 152.81 88.5686C152.931 88.4482 152.999 88.2848 152.999 88.1145V82.6159C152.999 82.4455 152.931 82.2822 152.81 82.1618C152.689 82.0414 152.525 81.9737 152.354 81.9736Z" fill="#FF6584"/>
<path d="M163.954 44.4759H158.43C158.259 44.4765 158.096 44.5444 157.975 44.6648C157.855 44.7852 157.787 44.9482 157.787 45.1181V50.6193C157.787 50.789 157.855 50.9517 157.975 51.0716C158.096 51.1916 158.259 51.259 158.43 51.2591H163.954C164.125 51.2591 164.289 51.1918 164.41 51.0719C164.531 50.952 164.599 50.7892 164.599 50.6193V45.1181C164.599 44.948 164.531 44.7849 164.41 44.6646C164.289 44.5442 164.125 44.4764 163.954 44.4759Z" fill="#FF6584"/>
<path d="M163.954 53.8503H158.43C158.259 53.8509 158.096 53.9189 157.975 54.0393C157.855 54.1596 157.787 54.3227 157.787 54.4926V59.9937C157.787 60.1634 157.855 60.3261 157.975 60.4461C158.096 60.5661 158.259 60.6335 158.43 60.6335H163.954C164.125 60.6336 164.289 60.5663 164.41 60.4464C164.531 60.3264 164.599 60.1637 164.599 59.9937V54.4926C164.599 54.3224 164.531 54.1593 164.41 54.039C164.289 53.9187 164.125 53.8508 163.954 53.8503Z" fill="#FF6584"/>
<path d="M163.954 63.2248H158.43C158.259 63.2254 158.096 63.2933 157.975 63.4137C157.855 63.5341 157.787 63.6971 157.787 63.867V69.3657C157.787 69.4499 157.803 69.5333 157.836 69.6112C157.868 69.6891 157.915 69.7598 157.975 69.8195C158.034 69.8791 158.105 69.9265 158.183 69.9588C158.261 69.9912 158.345 70.0078 158.43 70.0079H163.954C164.125 70.0079 164.289 69.9402 164.41 69.8197C164.531 69.6993 164.599 69.536 164.599 69.3657V63.867C164.599 63.6969 164.531 63.5338 164.41 63.4134C164.289 63.2931 164.125 63.2253 163.954 63.2248Z" fill="#FF6584"/>
<path d="M163.954 72.5992H158.43C158.259 72.5998 158.096 72.6677 157.975 72.7881C157.855 72.9085 157.787 73.0715 157.787 73.2414V78.7401C157.787 78.8243 157.803 78.9077 157.836 78.9856C157.868 79.0635 157.915 79.1342 157.975 79.1939C158.034 79.2536 158.105 79.3009 158.183 79.3332C158.261 79.3656 158.345 79.3823 158.43 79.3824H163.954C164.125 79.3823 164.289 79.3146 164.41 79.1942C164.531 79.0737 164.599 78.9104 164.599 78.7401V73.2414C164.599 73.0712 164.531 72.9082 164.41 72.7878C164.289 72.6675 164.125 72.5997 163.954 72.5992Z" fill="#FF6584"/>
<path d="M163.954 81.9736H158.43C158.345 81.9737 158.261 81.9904 158.183 82.0227C158.105 82.0551 158.034 82.1024 157.975 82.1621C157.915 82.2217 157.868 82.2925 157.836 82.3704C157.803 82.4482 157.787 82.5317 157.787 82.6159V88.1145C157.787 88.1987 157.803 88.2822 157.836 88.36C157.868 88.4379 157.915 88.5087 157.975 88.5683C158.034 88.628 158.105 88.6753 158.183 88.7077C158.261 88.74 158.345 88.7567 158.43 88.7568H163.954C164.125 88.7567 164.289 88.689 164.41 88.5686C164.531 88.4482 164.599 88.2848 164.599 88.1145V82.6159C164.599 82.4455 164.531 82.2822 164.41 82.1618C164.289 82.0414 164.125 81.9737 163.954 81.9736Z" fill="#FF6584"/>
<path d="M175.555 44.4759H170.03C169.859 44.4765 169.696 44.5444 169.575 44.6648C169.455 44.7852 169.387 44.9482 169.387 45.1181V50.6193C169.387 50.789 169.455 50.9517 169.576 51.0716C169.696 51.1916 169.859 51.259 170.03 51.2591H175.555C175.725 51.2591 175.889 51.1918 176.01 51.0719C176.131 50.952 176.199 50.7892 176.2 50.6193V45.1181C176.199 44.948 176.131 44.7849 176.01 44.6646C175.889 44.5442 175.725 44.4764 175.555 44.4759Z" fill="#FF6584"/>
<path d="M175.555 53.8503H170.03C169.859 53.8509 169.696 53.9189 169.575 54.0393C169.455 54.1596 169.387 54.3227 169.387 54.4926V59.9937C169.387 60.1634 169.455 60.3261 169.576 60.4461C169.696 60.5661 169.859 60.6335 170.03 60.6335H175.555C175.725 60.6336 175.889 60.5663 176.01 60.4464C176.131 60.3264 176.199 60.1637 176.2 59.9937V54.4926C176.199 54.3224 176.131 54.1593 176.01 54.039C175.889 53.9187 175.725 53.8508 175.555 53.8503Z" fill="#FF6584"/>
<path d="M175.555 63.2248H170.03C169.859 63.2254 169.696 63.2933 169.575 63.4137C169.455 63.5341 169.387 63.6971 169.387 63.867V69.3657C169.387 69.4499 169.404 69.5333 169.436 69.6112C169.468 69.6891 169.515 69.7598 169.575 69.8195C169.635 69.8791 169.705 69.9265 169.784 69.9588C169.862 69.9912 169.945 70.0078 170.03 70.0079H175.555C175.726 70.0079 175.89 69.9402 176.011 69.8197C176.132 69.6993 176.199 69.536 176.2 69.3657V63.867C176.199 63.6969 176.131 63.5338 176.01 63.4134C175.889 63.2931 175.725 63.2253 175.555 63.2248Z" fill="#FF6584"/>
<path d="M175.555 72.5992H170.03C169.859 72.5998 169.696 72.6677 169.575 72.7881C169.455 72.9085 169.387 73.0715 169.387 73.2414V78.7401C169.387 78.8243 169.404 78.9077 169.436 78.9856C169.468 79.0635 169.515 79.1342 169.575 79.1939C169.635 79.2536 169.705 79.3009 169.784 79.3332C169.862 79.3656 169.945 79.3823 170.03 79.3824H175.555C175.726 79.3823 175.89 79.3146 176.011 79.1942C176.132 79.0737 176.199 78.9104 176.2 78.7401V73.2414C176.199 73.0712 176.131 72.9082 176.01 72.7878C175.889 72.6675 175.725 72.5997 175.555 72.5992Z" fill="#FF6584"/>
<path d="M175.555 81.9736H170.03C169.945 81.9737 169.862 81.9904 169.784 82.0227C169.705 82.0551 169.635 82.1024 169.575 82.1621C169.515 82.2217 169.468 82.2925 169.436 82.3704C169.404 82.4482 169.387 82.5317 169.387 82.6159V88.1145C169.387 88.1987 169.404 88.2822 169.436 88.36C169.468 88.4379 169.515 88.5087 169.575 88.5683C169.635 88.628 169.705 88.6753 169.784 88.7077C169.862 88.74 169.945 88.7567 170.03 88.7568H175.555C175.726 88.7567 175.89 88.689 176.011 88.5686C176.132 88.4482 176.199 88.2848 176.2 88.1145V82.6159C176.199 82.4455 176.132 82.2822 176.011 82.1618C175.89 82.0414 175.726 81.9737 175.555 81.9736Z" fill="#FF6584"/>
<path d="M187.155 44.4759H181.63C181.459 44.4765 181.296 44.5444 181.175 44.6648C181.055 44.7852 180.987 44.9482 180.987 45.1181V50.6193C180.988 50.789 181.055 50.9517 181.176 51.0716C181.296 51.1916 181.46 51.259 181.63 51.2591H187.155C187.325 51.2591 187.489 51.1918 187.61 51.0719C187.731 50.952 187.799 50.7892 187.8 50.6193V45.1181C187.799 44.948 187.731 44.7849 187.61 44.6646C187.489 44.5442 187.326 44.4764 187.155 44.4759Z" fill="#FF6584"/>
<path d="M187.155 53.8503H181.63C181.459 53.8509 181.296 53.9189 181.175 54.0393C181.055 54.1596 180.987 54.3227 180.987 54.4926V59.9937C180.988 60.1634 181.055 60.3261 181.176 60.4461C181.296 60.5661 181.46 60.6335 181.63 60.6335H187.155C187.325 60.6336 187.489 60.5663 187.61 60.4464C187.731 60.3264 187.799 60.1637 187.8 59.9937V54.4926C187.799 54.3224 187.731 54.1593 187.61 54.039C187.489 53.9187 187.326 53.8508 187.155 53.8503Z" fill="#FF6584"/>
<path d="M187.155 63.2248H181.63C181.459 63.2254 181.296 63.2933 181.175 63.4137C181.055 63.5341 180.987 63.6971 180.987 63.867V69.3657C180.987 69.4499 181.004 69.5333 181.036 69.6112C181.068 69.6891 181.115 69.7598 181.175 69.8195C181.235 69.8791 181.306 69.9265 181.384 69.9588C181.462 69.9912 181.545 70.0078 181.63 70.0079H187.155C187.326 70.0079 187.49 69.9402 187.611 69.8197C187.732 69.6993 187.8 69.536 187.8 69.3657V63.867C187.799 63.6969 187.731 63.5338 187.61 63.4134C187.489 63.2931 187.326 63.2253 187.155 63.2248Z" fill="#FF6584"/>
<path d="M187.155 72.5992H181.63C181.459 72.5998 181.296 72.6677 181.175 72.7881C181.055 72.9085 180.987 73.0715 180.987 73.2414V78.7401C180.987 78.8243 181.004 78.9077 181.036 78.9856C181.068 79.0635 181.115 79.1342 181.175 79.1939C181.235 79.2536 181.306 79.3009 181.384 79.3332C181.462 79.3656 181.545 79.3823 181.63 79.3824H187.155C187.326 79.3823 187.49 79.3146 187.611 79.1942C187.732 79.0737 187.8 78.9104 187.8 78.7401V73.2414C187.799 73.0712 187.731 72.9082 187.61 72.7878C187.489 72.6675 187.326 72.5997 187.155 72.5992Z" fill="#FF6584"/>
<path d="M187.155 81.9736H181.63C181.545 81.9737 181.462 81.9904 181.384 82.0227C181.306 82.0551 181.235 82.1024 181.175 82.1621C181.115 82.2217 181.068 82.2925 181.036 82.3704C181.004 82.4482 180.987 82.5317 180.987 82.6159V88.1145C180.987 88.1987 181.004 88.2822 181.036 88.36C181.068 88.4379 181.115 88.5087 181.175 88.5683C181.235 88.628 181.306 88.6753 181.384 88.7077C181.462 88.74 181.545 88.7567 181.63 88.7568H187.155C187.326 88.7567 187.49 88.689 187.611 88.5686C187.732 88.4482 187.8 88.2848 187.8 88.1145V82.6159C187.8 82.4455 187.732 82.2822 187.611 82.1618C187.49 82.0414 187.326 81.9737 187.155 81.9736Z" fill="#FF6584"/>
<path d="M198.755 44.4759H193.23C193.059 44.4765 192.896 44.5444 192.776 44.6648C192.655 44.7852 192.588 44.9482 192.588 45.1181V50.6193C192.588 50.789 192.655 50.9517 192.776 51.0716C192.896 51.1916 193.06 51.259 193.23 51.2591H198.755C198.926 51.2591 199.089 51.1918 199.21 51.0719C199.331 50.952 199.399 50.7892 199.4 50.6193V45.1181C199.399 44.948 199.331 44.7849 199.21 44.6646C199.09 44.5442 198.926 44.4764 198.755 44.4759Z" fill="#FF6584"/>
<path d="M198.755 53.8503H193.23C193.059 53.8509 192.896 53.9189 192.776 54.0393C192.655 54.1596 192.588 54.3227 192.588 54.4926V59.9937C192.588 60.1634 192.655 60.3261 192.776 60.4461C192.896 60.5661 193.06 60.6335 193.23 60.6335H198.755C198.926 60.6336 199.089 60.5663 199.21 60.4464C199.331 60.3264 199.399 60.1637 199.4 59.9937V54.4926C199.399 54.3224 199.331 54.1593 199.21 54.039C199.09 53.9187 198.926 53.8508 198.755 53.8503Z" fill="#FF6584"/>
<path d="M198.755 63.2248H193.23C193.059 63.2254 192.896 63.2933 192.776 63.4137C192.655 63.5341 192.588 63.6971 192.588 63.867V69.3657C192.587 69.4499 192.604 69.5333 192.636 69.6112C192.668 69.6891 192.715 69.7598 192.775 69.8195C192.835 69.8791 192.906 69.9265 192.984 69.9588C193.062 69.9912 193.146 70.0078 193.23 70.0079H198.755C198.926 70.0079 199.09 69.9402 199.211 69.8197C199.332 69.6993 199.4 69.536 199.4 69.3657V63.867C199.399 63.6969 199.331 63.5338 199.21 63.4134C199.09 63.2931 198.926 63.2253 198.755 63.2248Z" fill="#FF6584"/>
<path d="M198.755 72.5992H193.23C193.059 72.5998 192.896 72.6677 192.776 72.7881C192.655 72.9085 192.588 73.0715 192.588 73.2414V78.7401C192.587 78.8243 192.604 78.9077 192.636 78.9856C192.668 79.0635 192.715 79.1342 192.775 79.1939C192.835 79.2536 192.906 79.3009 192.984 79.3332C193.062 79.3656 193.146 79.3823 193.23 79.3824H198.755C198.926 79.3823 199.09 79.3146 199.211 79.1942C199.332 79.0737 199.4 78.9104 199.4 78.7401V73.2414C199.399 73.0712 199.331 72.9082 199.21 72.7878C199.09 72.6675 198.926 72.5997 198.755 72.5992Z" fill="#FF6584"/>
<path d="M198.755 81.9736H193.23C193.146 81.9737 193.062 81.9904 192.984 82.0227C192.906 82.0551 192.835 82.1024 192.775 82.1621C192.715 82.2217 192.668 82.2925 192.636 82.3704C192.604 82.4482 192.587 82.5317 192.588 82.6159V88.1145C192.587 88.1987 192.604 88.2822 192.636 88.36C192.668 88.4379 192.715 88.5087 192.775 88.5683C192.835 88.628 192.906 88.6753 192.984 88.7077C193.062 88.74 193.146 88.7567 193.23 88.7568H198.755C198.926 88.7567 199.09 88.689 199.211 88.5686C199.332 88.4482 199.4 88.2848 199.4 88.1145V82.6159C199.4 82.4455 199.332 82.2822 199.211 82.1618C199.09 82.0414 198.926 81.9737 198.755 81.9736Z" fill="#FF6584"/>
<path d="M210.355 44.4759H204.83C204.66 44.4765 204.496 44.5444 204.376 44.6648C204.255 44.7852 204.188 44.9482 204.188 45.1181V50.6193C204.188 50.789 204.255 50.9517 204.376 51.0716C204.496 51.1916 204.66 51.259 204.83 51.2591H210.355C210.526 51.2591 210.689 51.1918 210.81 51.0719C210.931 50.952 210.999 50.7892 211 50.6193V45.1181C211 44.948 210.931 44.7849 210.811 44.6646C210.69 44.5442 210.526 44.4764 210.355 44.4759Z" fill="#FF6584"/>
<path d="M210.355 53.8503H204.83C204.66 53.8509 204.496 53.9189 204.376 54.0393C204.255 54.1596 204.188 54.3227 204.188 54.4926V59.9937C204.188 60.1634 204.255 60.3261 204.376 60.4461C204.496 60.5661 204.66 60.6335 204.83 60.6335H210.355C210.526 60.6336 210.689 60.5663 210.81 60.4464C210.931 60.3264 210.999 60.1637 211 59.9937V54.4926C211 54.3224 210.931 54.1593 210.811 54.039C210.69 53.9187 210.526 53.8508 210.355 53.8503Z" fill="#FF6584"/>
<path d="M210.355 63.2248H204.83C204.66 63.2254 204.496 63.2933 204.376 63.4137C204.255 63.5341 204.188 63.6971 204.188 63.867V69.3657C204.188 69.4499 204.204 69.5333 204.236 69.6112C204.268 69.6891 204.316 69.7598 204.375 69.8195C204.435 69.8791 204.506 69.9265 204.584 69.9588C204.662 69.9912 204.746 70.0078 204.83 70.0079H210.355C210.526 70.0079 210.69 69.9402 210.811 69.8197C210.932 69.6993 211 69.536 211 69.3657V63.867C211 63.6969 210.931 63.5338 210.811 63.4134C210.69 63.2931 210.526 63.2253 210.355 63.2248Z" fill="#FF6584"/>
<path d="M210.355 72.5992H204.83C204.66 72.5998 204.496 72.6677 204.376 72.7881C204.255 72.9085 204.188 73.0715 204.188 73.2414V78.7401C204.188 78.8243 204.204 78.9077 204.236 78.9856C204.268 79.0635 204.316 79.1342 204.375 79.1939C204.435 79.2536 204.506 79.3009 204.584 79.3332C204.662 79.3656 204.746 79.3823 204.83 79.3824H210.355C210.526 79.3823 210.69 79.3146 210.811 79.1942C210.932 79.0737 211 78.9104 211 78.7401V73.2414C211 73.0712 210.931 72.9082 210.811 72.7878C210.69 72.6675 210.526 72.5997 210.355 72.5992Z" fill="#FF6584"/>
<path d="M210.355 81.9736H204.83C204.746 81.9737 204.662 81.9904 204.584 82.0227C204.506 82.0551 204.435 82.1024 204.375 82.1621C204.316 82.2217 204.268 82.2925 204.236 82.3704C204.204 82.4482 204.188 82.5317 204.188 82.6159V88.1145C204.188 88.1987 204.204 88.2822 204.236 88.36C204.268 88.4379 204.316 88.5087 204.375 88.5683C204.435 88.628 204.506 88.6753 204.584 88.7077C204.662 88.74 204.746 88.7567 204.83 88.7568H210.355C210.526 88.7567 210.69 88.689 210.811 88.5686C210.932 88.4482 211 88.2848 211 88.1145V82.6159C211 82.4455 210.932 82.2822 210.811 82.1618C210.69 82.0414 210.526 81.9737 210.355 81.9736Z" fill="#FF6584"/>
<path d="M83.3779 163.046H83.2241L83.3555 163.029L83.3779 163.046Z" fill="#2F2E41"/>
<path d="M70.1601 60.5335C79.5209 60.5335 87.1093 52.9774 87.1093 43.6566C87.1093 34.3357 79.5209 26.7797 70.1601 26.7797C60.7993 26.7797 53.2109 34.3357 53.2109 43.6566C53.2109 52.9774 60.7993 60.5335 70.1601 60.5335Z" fill="#FFB6B6"/>
<path d="M85.003 31.2827C85.003 31.2827 89.436 22.8443 79.6833 22.0772C79.6833 22.0772 71.369 14.5672 62.8944 20.7042C62.8944 20.7042 58.2719 20.7042 55.7441 25.9128C55.7441 25.9128 52.1085 24.5399 51.3096 28.2142C51.3096 28.2142 48.6493 35.8855 51.3096 42.7897C53.9699 49.6939 54.8535 50.461 54.8535 50.461C54.8535 50.461 50.4821 35.986 61.1224 35.2189C71.7627 34.4517 83.6694 27.8307 84.5562 36.2691C85.4429 44.7075 86.7773 46.7867 86.7773 46.7867C86.7773 46.7867 95.1994 34.7349 85.003 31.2827Z" fill="#2F2E41"/>
<path d="M114.004 85.2491L113.949 85.5356L113.337 88.7568L109.102 111.038L108.851 112.35L108.325 115.124L107.606 118.908L106.011 127.294L105.554 129.698L105.383 130.6L105.324 130.916L104.85 133.403L104.706 134.154L103.55 142.684L102.54 150.117L105.919 153.481L103.905 155.487L102.582 163.028L102.585 163.046H48.6204C46.4373 161.638 44.2856 160.186 42.1654 158.691L42.6095 155.381C42.6095 155.381 44.1376 149.469 43.495 148.763C42.855 148.057 41.4509 146.794 41.4509 146.794L43.2197 142.684L43.4653 142.113L43.0535 133.608L43.0436 133.403L42.9072 130.6L42.8898 130.239L42.8625 129.698L42.339 118.908L42.3291 118.73L42.1704 115.46L42.0215 112.35L41.957 111.038L41.3195 97.9138L40.8878 89.0013L40.5107 81.2424L42.0265 80.7311L58.2384 75.2448L64.9538 66.5521L78.9306 66.6558L85.7726 66.7077L97.1892 77.2506L99.7866 78.4857L99.8064 78.4955L101.669 79.3823L106.393 81.6278L111.387 84.0041L113.949 85.2219L114.004 85.2491Z" fill="#CACACA"/>
<path d="M66.7601 137.726C65.7358 138.122 64.6371 138.288 63.5412 138.215C62.4453 138.141 61.3789 137.829 60.4171 137.301C59.4553 136.773 58.6215 136.041 57.9745 135.157C57.3275 134.273 56.883 133.259 56.6722 132.186L30.2373 128.451L39.4268 118.101L63.121 123.234C64.9554 123.001 66.812 123.446 68.3388 124.485C69.8657 125.524 70.9568 127.084 71.4053 128.871C71.8539 130.657 71.6288 132.545 70.7726 134.177C69.9165 135.81 68.4888 137.072 66.7601 137.726V137.726Z" fill="#FFB6B6"/>
<path d="M54.9736 118.908C54.484 118.29 53.7908 117.864 53.0163 117.705L42.1703 115.46L41.0565 115.23C40.4091 115.095 39.7976 114.826 39.262 114.44C38.7263 114.054 38.2786 113.56 37.948 112.989C37.6052 112.391 37.3977 111.725 37.3402 111.038C37.2885 110.414 37.3636 109.785 37.561 109.19L41.3194 97.9138L43.758 90.5971C44.0536 89.7146 44.228 88.7965 44.2765 87.8675C44.4124 85.2967 43.6136 82.7632 42.0264 80.7311C40.6311 78.9449 38.6957 77.6531 36.5063 77.0463C34.3169 76.4396 31.9896 76.5501 29.8681 77.3617C29.8061 77.384 29.7416 77.4087 29.6796 77.4334C28.1582 78.0383 26.7989 78.9872 25.7092 80.2052C24.6195 81.4231 23.8292 82.8768 23.4007 84.4512L20.7512 94.0479L15.2861 113.832C14.739 115.814 14.6285 117.89 14.9621 119.919C15.2957 121.948 16.0655 123.881 17.2189 125.586C18.3723 127.29 19.8821 128.727 21.6448 129.797C23.4075 130.867 25.3816 131.545 27.432 131.785L43.0535 133.608L50.2825 134.453C51.1184 134.553 51.9615 134.336 52.6437 133.845C53.326 133.353 53.7974 132.624 53.964 131.803C53.9757 131.758 53.9848 131.712 53.9912 131.667L54.1649 130.6L55.636 121.613L55.6509 121.522C55.7275 121.063 55.7069 120.594 55.5902 120.143C55.4736 119.693 55.2635 119.272 54.9736 118.908Z" fill="#CACACA"/>
<path d="M83.5981 138.015C84.668 138.262 85.7794 138.273 86.8539 138.046C87.9285 137.819 88.9401 137.361 89.8174 136.703C90.6948 136.045 91.4166 135.203 91.9319 134.237C92.4473 133.272 92.7438 132.205 92.8004 131.113L118.442 123.704L107.879 114.747L85.1482 123.156C83.2991 123.183 81.5242 123.884 80.1597 125.127C78.7952 126.37 77.9361 128.068 77.745 129.9C77.5539 131.731 78.0442 133.569 79.1229 135.064C80.2017 136.56 81.794 137.61 83.5981 138.015V138.015Z" fill="#FFB6B6"/>
<path d="M131.173 107.13L118.978 79.1823C117.98 76.8878 116.199 75.0193 113.949 73.9084C113.254 73.5675 112.524 73.3025 111.771 73.1179C111.655 73.0883 111.538 73.0611 111.421 73.0389C109.826 72.6921 108.171 72.7226 106.589 73.1278C105.143 73.4977 103.792 74.1669 102.623 75.0918C101.454 76.0167 100.495 77.1765 99.8064 78.4956C99.7988 78.5065 99.7922 78.5181 99.7865 78.5301C99.0178 80.0109 98.609 81.6508 98.593 83.3176C98.5771 84.9845 98.9545 86.6318 99.6947 88.1269L99.8461 88.4283L108.464 105.663C108.759 106.252 108.924 106.897 108.951 107.555C108.977 108.212 108.864 108.868 108.618 109.479C108.372 110.09 107.999 110.642 107.524 111.099C107.048 111.557 106.481 111.909 105.859 112.132L105.254 112.35L94.3685 116.265C93.5517 116.555 92.8798 117.15 92.4943 117.923C92.1089 118.697 92.0399 119.589 92.302 120.412L92.3293 120.499L95.3806 130.222C95.3955 130.266 95.4104 130.311 95.4278 130.355C95.4546 130.439 95.4878 130.521 95.527 130.6C95.8513 131.324 96.4245 131.909 97.1435 132.25C97.8624 132.591 98.68 132.665 99.4491 132.46L105.324 130.916L106.522 130.6L121.692 126.61C123.688 126.085 125.546 125.136 127.14 123.83C128.734 122.523 130.025 120.888 130.926 119.038C131.826 117.188 132.314 115.167 132.357 113.111C132.4 111.056 131.996 109.016 131.173 107.13L131.173 107.13Z" fill="#CACACA"/>
<path d="M11.1382 130.6C14.6536 134.869 18.4448 138.906 22.4878 142.684H134.612C135.692 142.685 136.727 143.114 137.491 143.875C138.255 144.635 138.684 145.667 138.685 146.742L138.846 175.034C145.744 171.878 152.204 167.849 158.065 163.046C159.692 161.714 161.269 160.325 162.796 158.878C163.796 157.935 164.771 156.968 165.723 155.978C172.859 148.576 178.637 139.987 182.796 130.6H11.1382Z" fill="#3F3D56"/>
<path d="M165.723 155.978C164.773 156.969 163.797 157.936 162.796 158.878H138.928V155.978H165.723Z" fill="#FF6584"/>
<path d="M113.781 63.2248C113.663 63.0081 113.488 62.8271 113.276 62.701C113.063 62.5749 112.82 62.5084 112.572 62.5084H31.2425C30.8779 62.5094 30.5285 62.6542 30.2708 62.9112C30.0132 63.1681 29.8684 63.5163 29.8681 63.8794V112.35H113.949V63.8794C113.951 63.6503 113.892 63.4249 113.781 63.2248Z" fill="#3F3D56"/>
<path d="M29.7945 111.037V117.019C29.7945 117.267 29.8435 117.512 29.9388 117.741C30.0341 117.97 30.1738 118.179 30.3499 118.354C30.526 118.529 30.735 118.668 30.9651 118.763C31.1951 118.858 31.4417 118.907 31.6907 118.907H62.7245V130.711H62.3123C62.2799 130.711 62.2479 130.718 62.218 130.73C62.1881 130.742 62.1609 130.76 62.1381 130.783C62.1152 130.806 62.0971 130.833 62.0847 130.863C62.0723 130.892 62.0659 130.924 62.0659 130.956V131.778C62.0659 131.81 62.0723 131.842 62.0847 131.871C62.097 131.901 62.1152 131.928 62.1381 131.951C62.1609 131.974 62.1881 131.992 62.218 132.004C62.2479 132.016 62.2799 132.023 62.3123 132.023H81.5776C81.61 132.023 81.642 132.016 81.6719 132.004C81.7018 131.992 81.7289 131.974 81.7518 131.951C81.7747 131.928 81.7928 131.901 81.8052 131.871C81.8176 131.842 81.824 131.81 81.824 131.778V130.956C81.824 130.924 81.8176 130.892 81.8052 130.863C81.7928 130.833 81.7747 130.806 81.7518 130.783C81.7289 130.76 81.7018 130.742 81.6719 130.73C81.642 130.718 81.61 130.711 81.5776 130.711H81.1653V118.907H112.199C112.448 118.907 112.695 118.858 112.925 118.763C113.155 118.668 113.364 118.529 113.54 118.354C113.716 118.179 113.856 117.97 113.951 117.741C114.046 117.512 114.095 117.267 114.095 117.019V111.037H29.7945Z" fill="#3F3D56"/>
<path d="M70.9263 93.8703C75.2156 93.8703 78.6927 90.4079 78.6927 86.137C78.6927 81.866 75.2156 78.4036 70.9263 78.4036C66.637 78.4036 63.1599 81.866 63.1599 86.137C63.1599 90.4079 66.637 93.8703 70.9263 93.8703Z" fill="#FF6584"/>
<path d="M90.7143 42.7344H89.4739C89.4739 33.397 80.1933 27.2783 70.8308 27.2734C69.469 27.2694 68.1102 27.401 66.7747 27.6662C65.2714 27.9651 63.711 28.3232 62.1778 28.7901C56.1322 30.6354 50.5256 34.2023 50.5256 42.7344C50.5243 44.3914 50.7361 46.0417 51.1557 47.6452L49.955 47.9564C49.5097 46.2512 49.2846 44.4964 49.2852 42.7344C49.2852 35.2793 52.3589 30.1586 57.6678 27.1054C60.4587 25.4998 63.8648 24.4648 67.767 23.9609C69.3909 23.7457 71.0326 23.6961 72.6666 23.8127C83.4332 24.5833 90.7143 32.8042 90.7143 42.7344Z" fill="#FF6584"/>
<path d="M92.7808 43.4187L92.292 39.822C92.1715 38.9137 91.7321 38.0772 91.0517 37.4605C90.6148 37.0585 90.0919 36.7606 89.5225 36.5894C88.953 36.4183 88.3519 36.3783 87.7646 36.4724L86.9881 36.5787C86.7757 36.6065 86.5709 36.6761 86.3856 36.7834C86.2004 36.8907 86.0384 37.0335 85.909 37.2036C85.7785 37.3732 85.6831 37.5668 85.6282 37.7732C85.5732 37.9797 85.5599 38.195 85.589 38.4066L86.7177 46.6917C86.7642 47.0294 86.9162 47.3439 87.1522 47.5909C87.3882 47.8378 87.6961 48.0046 88.0325 48.0676C88.1322 48.0875 88.2336 48.0974 88.3352 48.0972C88.4082 48.0972 88.4812 48.0923 88.5535 48.0824L89.4218 47.9663C89.9512 47.8964 90.4606 47.7194 90.9188 47.4462C91.377 47.1731 91.7742 46.8096 92.0862 46.378C92.1531 46.2841 92.2176 46.1878 92.2772 46.0889C92.7421 45.2807 92.9196 44.3398 92.7808 43.4187Z" fill="#FF6584"/>
<path d="M86.487 36.7294C86.2593 36.8396 86.0612 37.0021 85.909 37.2036C85.7785 37.3732 85.6831 37.5668 85.6282 37.7733C85.5732 37.9797 85.5599 38.195 85.589 38.4066L86.7177 46.6917C86.7642 47.0294 86.9162 47.344 87.1522 47.5909C87.3882 47.8378 87.6961 48.0046 88.0325 48.0676L86.487 36.7294Z" fill="#FF6584"/>
<path d="M92.7808 43.4187L92.2921 39.8221C92.1715 38.9138 91.7321 38.0772 91.0517 37.4605L92.1755 45.7036C92.1923 45.8359 92.2265 45.9655 92.2772 46.089C92.7421 45.2807 92.9196 44.3398 92.7808 43.4187Z" fill="#3F3D56"/>
<path d="M88.9183 46.0101C89.2577 45.9642 89.4283 45.1599 89.2994 44.2136C89.1705 43.2673 88.7908 42.5373 88.4514 42.5832C88.112 42.629 87.9413 43.4333 88.0703 44.3796C88.1992 45.326 88.5789 46.0559 88.9183 46.0101Z" fill="#3F3D56"/>
<path d="M88.174 41.5637C88.5135 41.5179 88.6841 40.7135 88.5552 39.7672C88.4262 38.8209 88.0466 38.091 87.7072 38.1368C87.3677 38.1827 87.1971 38.987 87.326 39.9333C87.455 40.8796 87.8346 41.6095 88.174 41.5637Z" fill="#3F3D56"/>
<path d="M92.8875 43.2929C93.2269 43.247 93.3976 42.4427 93.2687 41.4964C93.1397 40.5501 92.7601 39.8201 92.4207 39.866C92.0812 39.9118 91.9106 40.7161 92.0395 41.6624C92.1684 42.6087 92.5481 43.3387 92.8875 43.2929Z" fill="#3F3D56"/>
<path d="M70.8308 27.2734C69.469 27.2694 68.1102 27.401 66.7747 27.6662C65.2714 27.9651 63.711 28.3232 62.1778 28.7901C59.7839 28.674 58.0225 28.0565 57.6678 27.1054C60.4587 25.4998 63.8648 24.4648 67.767 23.9609C69.3909 23.7457 71.0326 23.6961 72.6666 23.8127C72.8396 23.9136 72.9891 24.0499 73.1054 24.2125C73.2217 24.3752 73.3021 24.5605 73.3414 24.7563C73.458 25.6159 72.4731 26.5299 70.8308 27.2734Z" fill="#3F3D56"/>
<path d="M54.9935 51.306L53.0833 43.3989C53.0152 43.1136 52.8639 42.8548 52.6485 42.6548C52.4332 42.4548 52.1632 42.3227 51.8727 42.275C51.7906 42.2623 51.7077 42.2557 51.6246 42.2552C51.5076 42.2556 51.391 42.2697 51.2773 42.2972L50.538 42.4751C49.5862 42.7043 48.7645 43.3001 48.2534 44.1319C47.7423 44.9636 47.5834 45.9633 47.8116 46.9116L48.6675 50.4588C48.8629 51.2939 49.3283 52.042 49.9922 52.5881C50.0998 52.6746 50.2125 52.7546 50.3296 52.8277C50.7455 53.0872 51.2093 53.2611 51.6938 53.3392C52.1782 53.4173 52.6735 53.3979 53.1503 53.2822L53.8871 53.1044C54.0819 53.0591 54.2652 52.9742 54.4254 52.8549C54.6637 52.6819 54.8449 52.4423 54.946 52.1665C55.0472 51.8907 55.0637 51.5912 54.9935 51.306Z" fill="#FF6584"/>
<path d="M50.9889 49.8348C51.322 49.755 51.41 48.9377 51.1856 48.0092C50.9612 47.0807 50.5094 46.3927 50.1764 46.4725C49.8433 46.5523 49.7553 47.3697 49.9797 48.2982C50.2041 49.2266 50.6559 49.9146 50.9889 49.8348Z" fill="#3F3D56"/>
<path d="M48.5082 50.5759C48.8412 50.4961 48.9292 49.6787 48.7049 48.7502C48.4805 47.8218 48.0286 47.1338 47.6956 47.2136C47.3626 47.2934 47.2745 48.1107 47.4989 49.0392C47.7233 49.9677 48.1751 50.6557 48.5082 50.5759Z" fill="#3F3D56"/>
<path d="M55.1151 51.2764L53.2049 43.3692C53.1304 43.0606 52.9662 42.7806 52.7328 42.5645C52.4994 42.3483 52.2071 42.2055 51.8925 42.1539L54.4998 52.9536C54.7573 52.7659 54.9532 52.5063 55.0627 52.2078C55.1722 51.9093 55.1904 51.5852 55.1151 51.2764Z" fill="#FF6584"/>
<path d="M48.2433 45.3454C48.1906 45.1255 48.0916 44.9193 47.953 44.7402C47.6845 45.4327 47.6352 46.1904 47.8116 46.9115L48.6675 50.4588C48.8629 51.2939 49.3283 52.042 49.9922 52.5881L48.2433 45.3454Z" fill="#3F3D56"/>
</g>
<defs>
<clipPath id="clip0_9_575">
<rect width="211" height="183" fill="white"/>
</clipPath>
</defs>
</svg>
