<svg width="228" height="301" viewBox="0 0 228 301" fill="none" xmlns="http://www.w3.org/2000/svg">
<path d="M124.212 229.561L127.964 237.893C124.914 237.412 122.078 239.991 122.015 243.304C121.951 246.617 124.671 250.063 127.72 250.534C127.138 253.106 124.623 254.24 122.439 255.279C120.256 256.319 117.903 258.043 118.066 260.784C118.196 262.984 120.033 264.927 121.984 265.708C123.935 266.489 125.982 266.369 127.958 266.238C124.964 269.34 124.672 275.171 127.301 279.354C129.931 283.538 135.182 285.597 139.114 283.987C136.336 287.41 136.94 293.679 140.388 297.211C143.864 300.772 148.901 301.117 153.305 300.742C164.519 299.803 175.204 295.609 184.024 288.684C187.39 286.035 190.535 282.918 192.455 278.854C194.376 274.789 194.941 269.643 193.153 265.018C193.635 270.812 199.491 275.388 204.758 275.644C210.026 275.901 214.625 272.962 218.533 269.611C223.731 265.154 228.543 258.907 227.829 251.2C227.476 247.384 225.794 243.714 224.143 240.159L220.944 233.268C219.652 230.486 218.331 227.657 216.387 225.322C214.443 222.987 211.744 221.18 209.044 221.197C209.661 218.403 210.282 215.505 209.764 212.537C209.247 209.568 207.266 206.495 204.571 205.8C201.142 204.915 198.235 208.05 194.787 207.754C191.468 207.47 188.726 204.171 185.503 202.864C184.177 202.296 182.711 202.123 181.287 202.367C179.862 202.611 178.541 203.261 177.484 204.238C175.441 206.213 174.589 209.55 175.322 212.708C175.965 215.474 177.674 217.914 178.711 220.582C179.748 223.249 179.909 226.679 177.917 228.136C175.513 229.895 171.854 227.502 169.976 224.608C168.098 221.714 167.019 218.209 164.644 215.775C161.841 212.902 157.454 212.229 154.568 214.229C151.682 216.229 150.578 220.707 152.033 224.514C153.222 227.627 155.948 230.776 155.002 233.707C154.004 236.805 149.632 236.413 146.996 234.223C144.359 232.034 142.609 228.736 140.004 226.498C137.359 224.224 133.905 223.228 130.873 223.864C129.334 224.218 127.911 224.949 126.733 225.991C125.556 227.033 124.662 228.352 124.135 229.827" fill="#E6E6E6"/>
<path d="M184.951 206.147L177.167 209.73C175.997 210.302 174.67 210.479 173.388 210.234C172.258 209.969 171.495 209.285 171.294 208.356L169.483 199.977C169.141 198.396 170.463 196.526 172.625 195.531L176.924 193.553C179.087 192.557 181.382 192.763 182.381 194.041L187.678 200.816C188.266 201.567 188.302 202.587 187.777 203.613C187.14 204.741 186.147 205.631 184.951 206.147Z" fill="#3F3D56"/>
<path d="M127.19 90.5283C122.459 92.7098 122.381 102.481 123.865 105.647L126.553 111.378L143.689 103.492L141.001 97.7616C139.514 94.5969 131.925 88.3541 127.19 90.5283Z" fill="#3F3D56"/>
<path d="M81.1417 172.806C80.8402 172.806 80.5431 172.734 80.2757 172.596C80.0083 172.458 79.7784 172.258 79.6056 172.014C79.4328 171.769 79.3221 171.486 79.283 171.19C79.2439 170.894 79.2775 170.593 79.381 170.313C79.4648 170.083 79.5938 169.873 79.7604 169.693C79.927 169.514 80.1279 169.369 80.3514 169.267L168.846 128.544C169.069 128.441 169.31 128.383 169.556 128.372C169.802 128.362 170.047 128.4 170.278 128.483C170.509 128.567 170.722 128.695 170.903 128.86C171.084 129.025 171.231 129.223 171.334 129.444C171.543 129.89 171.564 130.401 171.394 130.863C171.223 131.325 170.875 131.701 170.425 131.909H170.424L81.93 172.632C81.6833 172.747 81.4141 172.806 81.1417 172.806Z" fill="#3F3D56"/>
<path d="M150.364 107.147L125.068 118.788L164.749 203.379L190.045 191.738L150.364 107.147Z" fill="#E6E6E6"/>
<path d="M55.4058 0.661578C50.675 2.8431 50.597 12.6145 52.0804 15.7805L54.7687 21.5113L71.9046 13.6257L69.2163 7.89496C67.73 4.73017 60.1401 -1.51256 55.4058 0.661578Z" fill="#3F3D56"/>
<path d="M161.404 215.872L153.621 219.454C152.45 220.026 151.123 220.203 149.842 219.958C148.712 219.694 147.948 219.009 147.748 218.08L145.936 209.701C145.594 208.121 146.916 206.251 149.079 205.255L153.378 203.277C155.54 202.282 157.836 202.487 158.835 203.766L164.132 210.54C164.72 211.292 164.755 212.311 164.231 213.337C163.593 214.465 162.601 215.355 161.404 215.872Z" fill="#3F3D56"/>
<path d="M137.472 227.632L129.688 231.214C128.518 231.787 127.191 231.964 125.91 231.719C124.78 231.454 124.016 230.77 123.816 229.841L122.004 221.462C121.662 219.881 122.984 218.011 125.147 217.016L129.446 215.038C131.608 214.042 133.904 214.248 134.903 215.526L140.2 222.301C140.787 223.052 140.823 224.071 140.299 225.098C139.661 226.225 138.669 227.116 137.472 227.632Z" fill="#3F3D56"/>
<path d="M85.3293 31.6695L60.0335 43.3102L140.243 214.301L165.539 202.66L85.3293 31.6695Z" fill="#E6E6E6"/>
<path d="M111.576 119.815L108.738 113.629L110.372 112.882L113.202 119.049L154.177 209.035L152.545 209.786" fill="#3F3D56"/>
<path d="M143.59 114.673L140.752 108.487L142.386 107.74L145.216 113.907L186.191 203.893L184.559 204.644" fill="#3F3D56"/>
<path d="M97.269 45.3535L62.9942 61.1261C60.8121 57.7636 54.2339 40.5326 55.711 35.4202L54.6023 30.5449L78.2682 19.6543L81.436 23.5138C86.1382 24.9428 95.2922 41.1275 97.269 45.3535Z" fill="#E6E6E6"/>
<path d="M79.2571 19.8629L54.8352 31.1014C53.9338 31.5161 52.9738 31.3637 52.6911 30.7607C52.6505 30.6738 52.6253 30.5806 52.6166 30.4853L51.3526 17.13C51.2985 16.5581 51.7925 15.91 52.5472 15.5627L68.7431 8.10966C69.4978 7.76237 70.3164 7.80641 70.7228 8.2162L80.2127 17.7861C80.6981 18.2755 80.4345 19.1134 79.624 19.6574C79.5075 19.7355 79.3848 19.8042 79.2571 19.8629Z" fill="#E6E6E6"/>
<path d="M98.4121 124.497C98.1477 124.497 97.8842 124.467 97.6273 124.405C97.2651 124.331 96.9249 124.175 96.6327 123.95C96.3405 123.726 96.1041 123.438 95.9416 123.109L81.0107 91.2788C80.3928 89.9611 81.2223 88.276 82.8599 87.5224L104.723 77.4613C106.361 76.7073 108.196 77.1667 108.814 78.4842L123.745 110.314C123.894 110.649 123.964 111.014 123.949 111.38C123.934 111.746 123.834 112.104 123.658 112.426C123.275 113.156 122.654 113.735 121.896 114.071L100.033 124.131C99.5257 124.368 98.9727 124.493 98.4121 124.497Z" fill="#3F3D56"/>
<path d="M101.402 129.315L76.1061 140.955L115.787 225.546L141.082 213.905L101.402 129.315Z" fill="#E6E6E6"/>
<path d="M70.2379 21.2581L62.8197 24.6718C61.3883 25.3305 59.457 24.2328 58.5153 22.2252C57.5735 20.2176 57.9721 18.0478 59.4035 17.389L66.8217 13.9753C68.2531 13.3166 70.1844 14.4143 71.1261 16.4219C72.0679 18.4296 71.6693 20.5993 70.2379 21.2581Z" fill="#3F3D56"/>
<path d="M78.7217 112.469C73.9909 114.65 73.913 124.422 75.3964 127.588L78.0846 133.318L95.2205 125.433L92.5323 119.702C91.046 116.537 83.456 110.295 78.7217 112.469Z" fill="#3F3D56"/>
<path d="M3.1655 23.9763C1.49472 25.0789 -0.215304 22.4546 1.48759 21.401C3.15828 20.2984 4.86832 22.9227 3.1655 23.9763Z" fill="#E6E6E6"/>
<path d="M166.293 141.987C165.409 142.393 164.398 142.435 163.482 142.103C162.566 141.772 161.821 141.094 161.409 140.219L157.034 130.893C156.625 130.017 156.583 129.016 156.918 128.109C157.253 127.203 157.938 126.466 158.822 126.059C159.705 125.652 160.716 125.61 161.631 125.94C162.547 126.271 163.292 126.948 163.704 127.823L168.079 137.15C168.489 138.026 168.531 139.027 168.196 139.934C167.861 140.841 167.177 141.579 166.293 141.987Z" fill="#3F3D56"/>
<path d="M91.8824 176.267C90.9978 176.673 89.9868 176.715 89.0711 176.383C88.1554 176.052 87.4099 175.374 86.9981 174.499L82.6232 165.172C82.2137 164.296 82.1719 163.295 82.5071 162.389C82.8422 161.483 83.5268 160.745 84.4106 160.339C85.2944 159.932 86.3049 159.889 87.2204 160.22C88.1359 160.551 88.8813 161.228 89.293 162.103L93.6679 171.429C94.0777 172.305 94.1198 173.307 93.7851 174.214C93.4504 175.121 92.7661 175.859 91.8824 176.267Z" fill="#3F3D56"/>
<path d="M159.554 121.61L130.22 135.109C128.352 132.232 122.722 117.484 123.986 113.109L124.607 108.214L142.122 99.7029L146.003 102.919C151.471 101.088 159.51 114.509 159.554 121.61Z" fill="#E6E6E6"/>
<path d="M145.935 120.674L138.517 124.088C137.085 124.747 134.907 123.123 133.662 120.468C132.417 117.814 132.569 115.118 134 114.459L141.418 111.046C142.85 110.387 145.028 112.011 146.273 114.665C147.518 117.32 147.366 120.016 145.935 120.674Z" fill="#3F3D56"/>
<path d="M83.0231 138.24L80.1847 132.054L81.8187 131.307L84.6485 137.474L125.624 227.461L123.992 228.212" fill="#3F3D56"/>
<path d="M111.085 143.551L81.7512 157.05C77.4236 154.837 70.8097 140.355 75.5177 135.049L76.1382 130.155L93.6534 121.643L97.5346 124.859C101.559 126.082 109.394 139.934 111.085 143.551Z" fill="#E6E6E6"/>
<path d="M96.8628 141.328L89.4447 144.741C88.0132 145.4 85.9705 144.065 84.8918 141.765C83.8131 139.466 84.1001 137.058 85.5316 136.4L92.9498 132.986C94.3812 132.327 96.4239 133.662 97.5026 135.962C98.5813 138.262 98.2942 140.669 96.8628 141.328Z" fill="#3F3D56"/>
<path d="M171.397 151.985L191.374 157.107L203.626 180.943L182.912 181.748L171.397 151.985Z" fill="#E6E6E6"/>
<path d="M125.288 117.622L136.282 128.518L164.207 188.317L159.065 192.716L125.288 117.622Z" fill="#CCCCCC"/>
<path d="M101.381 127.499L102.244 142.88L128.601 203.373L135.34 202.513L101.381 127.499Z" fill="#CCCCCC"/>
<path d="M100.662 189.636L89.9031 207.077L97.8343 232.645L113.285 218.956L100.662 189.636Z" fill="#E6E6E6"/>
</svg>
